<svg xmlns="http://www.w3.org/2000/svg" xmlns:xlink="http://www.w3.org/1999/xlink" width="353" height="234" viewBox="0 0 353 234">
  <defs>
    <clipPath id="clip-path">
      <rect width="353" height="234" fill="none"/>
    </clipPath>
    <linearGradient id="linear-gradient" y1="0.5" x2="1" y2="0.5" gradientUnits="objectBoundingBox">
      <stop offset="0" stop-color="#78c5ff"/>
      <stop offset="1" stop-color="#1a9dff"/>
    </linearGradient>
    <linearGradient id="linear-gradient-2" x1="-23.13" y1="11.529" x2="-23.197" y2="13.086" gradientUnits="objectBoundingBox">
      <stop offset="0" stop-color="#ff8f9f"/>
      <stop offset="1" stop-color="#ff5e76"/>
    </linearGradient>
    <linearGradient id="linear-gradient-3" x1="10.925" y1="-2.421" x2="11.845" y2="-1.589" xlink:href="#linear-gradient-2"/>
    <linearGradient id="linear-gradient-4" x1="-7.534" y1="-3.243" x2="41.828" y2="19.756" gradientUnits="objectBoundingBox">
      <stop offset="0" stop-color="#66beff"/>
      <stop offset="1" stop-color="#33a8ff"/>
    </linearGradient>
    <linearGradient id="linear-gradient-5" x1="-0.561" y1="0.006" x2="3.179" y2="1.748" xlink:href="#linear-gradient-4"/>
    <linearGradient id="linear-gradient-6" x1="-12.964" y1="-6.981" x2="19.946" y2="11.419" xlink:href="#linear-gradient-4"/>
    <linearGradient id="linear-gradient-7" x1="-0.863" y1="-0.135" x2="1.026" y2="0.745" xlink:href="#linear-gradient-4"/>
    <linearGradient id="linear-gradient-8" x1="-50.307" y1="-23.173" x2="-0.943" y2="-0.172" xlink:href="#linear-gradient-4"/>
    <linearGradient id="linear-gradient-9" x1="0.905" y1="0.5" x2="-0.148" y2="0.5" gradientUnits="objectBoundingBox">
      <stop offset="0" stop-color="#73c3ff"/>
      <stop offset="1" stop-color="#1a9dff"/>
    </linearGradient>
    <linearGradient id="linear-gradient-10" x1="1.061" y1="0.834" x2="0.031" y2="0.22" gradientUnits="objectBoundingBox">
      <stop offset="0" stop-color="#52b5ff"/>
      <stop offset="1" stop-color="#0092ff"/>
    </linearGradient>
    <linearGradient id="linear-gradient-11" x1="1.044" y1="0.089" x2="0.008" y2="0.872" xlink:href="#linear-gradient"/>
    <linearGradient id="linear-gradient-12" x1="0.208" y1="0.141" x2="0.779" y2="0.844" xlink:href="#linear-gradient-4"/>
    <linearGradient id="linear-gradient-13" x1="0.218" y1="0.109" x2="1.166" y2="1.422" xlink:href="#linear-gradient-4"/>
    <linearGradient id="linear-gradient-14" x1="-0.249" y1="-0.781" x2="1.712" y2="2.655" xlink:href="#linear-gradient-2"/>
    <linearGradient id="linear-gradient-15" x1="0.026" y1="-0.143" x2="1.101" y2="1.315" xlink:href="#linear-gradient-2"/>
    <linearGradient id="linear-gradient-16" x1="0.496" y1="-0.144" x2="0.51" y2="1.396" xlink:href="#linear-gradient-4"/>
    <linearGradient id="linear-gradient-17" x1="0.86" y1="-0.079" x2="0.118" y2="1.116" gradientUnits="objectBoundingBox">
      <stop offset="0" stop-color="#75c4ff"/>
      <stop offset="1" stop-color="#45afff"/>
    </linearGradient>
    <linearGradient id="linear-gradient-18" x1="0.241" y1="-0.055" x2="0.718" y2="0.967" xlink:href="#linear-gradient-4"/>
    <linearGradient id="linear-gradient-19" x1="0.5" y1="-0.018" x2="0.5" y2="1.154" xlink:href="#linear-gradient-4"/>
    <linearGradient id="linear-gradient-20" x1="0.214" y1="0.004" x2="1.919" y2="2.957" xlink:href="#linear-gradient-4"/>
    <linearGradient id="linear-gradient-21" x1="-0.132" y1="-0.595" x2="1.573" y2="2.358" xlink:href="#linear-gradient-4"/>
    <linearGradient id="linear-gradient-22" x1="-0.478" y1="-1.194" x2="1.227" y2="1.759" xlink:href="#linear-gradient-4"/>
    <linearGradient id="linear-gradient-23" x1="-10.834" y1="4.449" x2="-10.168" y2="5.196" xlink:href="#linear-gradient-2"/>
    <linearGradient id="linear-gradient-24" x1="-0.28" y1="-0.879" x2="1.356" y2="1.364" gradientUnits="objectBoundingBox">
      <stop offset="0.005" stop-color="#b0ddff"/>
      <stop offset="1" stop-color="#6bc0ff"/>
    </linearGradient>
  </defs>
  <g id="Vector_Smart_Object" data-name="Vector Smart Object" clip-path="url(#clip-path)">
    <g id="Vector_Smart_Object-2" data-name="Vector Smart Object" transform="translate(-1172.677 -1533.446)">
      <g id="Сгруппировать_87" data-name="Сгруппировать 87">
        <g id="Сгруппировать_3" data-name="Сгруппировать 3">
          <g id="Сгруппировать_1" data-name="Сгруппировать 1">
            <path id="Контур_1" data-name="Контур 1" d="M1369.569,1767.446l-27.432-15.876.666-1.155,26.766,15.49,53.079-30.718.666,1.155Z" fill="url(#linear-gradient)"/>
          </g>
          <g id="Сгруппировать_2" data-name="Сгруппировать 2">
            <path id="Контур_2" data-name="Контур 2" d="M1370.052,1755.417l-15.9-9.2.666-1.155,15.235,8.816,18.484-10.7.666,1.155Z" fill="url(#linear-gradient-2)"/>
          </g>
        </g>
        <g id="Сгруппировать_4" data-name="Сгруппировать 4">
          <path id="Контур_3" data-name="Контур 3" d="M1239.707,1666.543l-57.816-33.46,60.609-35.076,1.153.667-59.456,34.409,56.663,32.793Z" fill="url(#linear-gradient-3)"/>
        </g>
        <g id="Сгруппировать_47" data-name="Сгруппировать 47">
          <path id="Контур_4" data-name="Контур 4" d="M1445.385,1616.667l-11.394,6.594-11.394-6.594,11.394-6.594Z" fill="#78c5ff" opacity="0.23"/>
          <g id="Сгруппировать_46" data-name="Сгруппировать 46">
            <path id="Контур_5" data-name="Контур 5" d="M1524.864,1593.175l-83.435,48.286-63.418-36.7,83.434-48.286Z" fill="#939598" opacity="0.08"/>
            <path id="Контур_6" data-name="Контур 6" d="M1525.677,1588.259l-83.435,48.286-63.418-36.7,83.434-48.286Z" fill="#8cceff" opacity="0.21"/>
            <g id="Сгруппировать_45" data-name="Сгруппировать 45">
              <g id="Сгруппировать_5" data-name="Сгруппировать 5">
                <path id="Контур_7" data-name="Контур 7" d="M1410.695,1610.63a1.622,1.622,0,0,1-1.471,0l-12.312-7.126a.449.449,0,0,1,0-.85,1.62,1.62,0,0,1,1.469,0l12.314,7.126A.449.449,0,0,1,1410.695,1610.63Z" fill="#78c5ff"/>
              </g>
              <g id="Сгруппировать_6" data-name="Сгруппировать 6">
                <path id="Контур_8" data-name="Контур 8" d="M1418.5,1611.746a1.62,1.62,0,0,1-1.47,0l-12.911-7.472a.449.449,0,0,1,0-.851,1.622,1.622,0,0,1,1.471,0l12.91,7.472A.449.449,0,0,1,1418.5,1611.746Z" fill="#78c5ff"/>
              </g>
              <g id="Сгруппировать_7" data-name="Сгруппировать 7">
                <path id="Контур_9" data-name="Контур 9" d="M1403.206,1602.893a1.622,1.622,0,0,1-1.471,0l-6.754-3.909a.449.449,0,0,1,0-.851,1.622,1.622,0,0,1,1.47,0l6.754,3.908A.45.45,0,0,1,1403.206,1602.893Z" fill="#78c5ff"/>
              </g>
              <g id="Сгруппировать_8" data-name="Сгруппировать 8">
                <path id="Контур_10" data-name="Контур 10" d="M1423.283,1611.109a1.62,1.62,0,0,1-1.47,0L1401.23,1599.2a.449.449,0,0,1,0-.851,1.62,1.62,0,0,1,1.47,0l20.583,11.911A.45.45,0,0,1,1423.283,1611.109Z" fill="#78c5ff"/>
              </g>
              <g id="Сгруппировать_9" data-name="Сгруппировать 9">
                <path id="Контур_11" data-name="Контур 11" d="M1400.311,1597.814a1.62,1.62,0,0,1-1.47,0l-2.757-1.6a.449.449,0,0,1,0-.85,1.623,1.623,0,0,1,1.471,0l2.756,1.6A.449.449,0,0,1,1400.311,1597.814Z" fill="#78c5ff"/>
              </g>
              <g id="Сгруппировать_10" data-name="Сгруппировать 10">
                <path id="Контур_12" data-name="Контур 12" d="M1423.467,1607.811a1.622,1.622,0,0,1-1.471,0l-3.124-1.807a.45.45,0,0,1,0-.851,1.622,1.622,0,0,1,1.47,0l3.125,1.808A.449.449,0,0,1,1423.467,1607.811Z" fill="#78c5ff"/>
              </g>
              <g id="Сгруппировать_11" data-name="Сгруппировать 11">
                <path id="Контур_13" data-name="Контур 13" d="M1417.931,1604.607a1.622,1.622,0,0,1-1.471,0l-14.679-8.495a.449.449,0,0,1,0-.851,1.622,1.622,0,0,1,1.471,0l14.679,8.5A.449.449,0,0,1,1417.931,1604.607Z" fill="#78c5ff"/>
              </g>
              <g id="Сгруппировать_12" data-name="Сгруппировать 12">
                <path id="Контур_14" data-name="Контур 14" d="M1420.894,1602.919a1.62,1.62,0,0,1-1.47,0l-5.054-2.925a.449.449,0,0,1,0-.851,1.62,1.62,0,0,1,1.469,0l5.054,2.925A.449.449,0,0,1,1420.894,1602.919Z" fill="#78c5ff"/>
              </g>
              <g id="Сгруппировать_13" data-name="Сгруппировать 13">
                <path id="Контур_15" data-name="Контур 15" d="M1413.543,1598.664a1.62,1.62,0,0,1-1.47,0l-1.838-1.063a.449.449,0,0,1,0-.851,1.622,1.622,0,0,1,1.471,0l1.837,1.063A.449.449,0,0,1,1413.543,1598.664Z" fill="#78c5ff"/>
              </g>
              <g id="Сгруппировать_14" data-name="Сгруппировать 14">
                <path id="Контур_16" data-name="Контур 16" d="M1422,1600.153a1.622,1.622,0,0,1-1.47,0l-5.513-3.19a.45.45,0,0,1,0-.851,1.62,1.62,0,0,1,1.47,0L1422,1599.3A.449.449,0,0,1,1422,1600.153Z" fill="#78c5ff"/>
              </g>
              <g id="Сгруппировать_15" data-name="Сгруппировать 15">
                <path id="Контур_17" data-name="Контур 17" d="M1433.207,1603.238a1.622,1.622,0,0,1-1.471,0l-17.32-10.024a.449.449,0,0,1,0-.851,1.62,1.62,0,0,1,1.469,0l17.321,10.023A.45.45,0,0,1,1433.207,1603.238Z" fill="#78c5ff"/>
              </g>
              <g id="Сгруппировать_16" data-name="Сгруппировать 16">
                <path id="Контур_18" data-name="Контур 18" d="M1413.681,1591.937a1.622,1.622,0,0,1-1.471,0l-2.526-1.462a.45.45,0,0,1,0-.852,1.62,1.62,0,0,1,1.469,0l2.528,1.463A.449.449,0,0,1,1413.681,1591.937Z" fill="#78c5ff"/>
              </g>
              <g id="Сгруппировать_17" data-name="Сгруппировать 17">
                <path id="Контур_19" data-name="Контур 19" d="M1433.391,1599.94a1.62,1.62,0,0,1-1.469,0l-.184-.106a.449.449,0,0,1,0-.851,1.622,1.622,0,0,1,1.471,0l.183.106A.449.449,0,0,1,1433.391,1599.94Z" fill="#78c5ff"/>
              </g>
              <g id="Сгруппировать_18" data-name="Сгруппировать 18">
                <path id="Контур_20" data-name="Контур 20" d="M1430.833,1598.46a1.622,1.622,0,0,1-1.471,0l-13.982-8.091a.45.45,0,0,1,0-.851,1.62,1.62,0,0,1,1.47,0l13.983,8.092A.449.449,0,0,1,1430.833,1598.46Z" fill="#78c5ff"/>
              </g>
              <g id="Сгруппировать_19" data-name="Сгруппировать 19">
                <path id="Контур_21" data-name="Контур 21" d="M1431.737,1595.58a1.62,1.62,0,0,1-1.469,0l-7.352-4.255a.449.449,0,0,1,0-.851,1.622,1.622,0,0,1,1.471,0l7.351,4.254A.45.45,0,0,1,1431.737,1595.58Z" fill="#78c5ff"/>
              </g>
              <g id="Сгруппировать_20" data-name="Сгруппировать 20">
                <path id="Контур_22" data-name="Контур 22" d="M1435.6,1594.411a1.622,1.622,0,0,1-1.471,0l-9.189-5.318a.45.45,0,0,1,0-.852,1.622,1.622,0,0,1,1.471,0l9.189,5.318A.45.45,0,0,1,1435.6,1594.411Z" fill="#78c5ff"/>
              </g>
              <g id="Сгруппировать_21" data-name="Сгруппировать 21">
                <path id="Контур_23" data-name="Контур 23" d="M1443.131,1595.368a1.621,1.621,0,0,1-1.47,0l-13.692-7.924a.449.449,0,0,1,0-.85,1.622,1.622,0,0,1,1.471,0l13.691,7.924A.449.449,0,0,1,1443.131,1595.368Z" fill="#78c5ff"/>
              </g>
              <g id="Сгруппировать_22" data-name="Сгруппировать 22">
                <path id="Контур_24" data-name="Контур 24" d="M1427.2,1586.15a1.622,1.622,0,0,1-1.47,0l-2.45-1.418a.449.449,0,0,1,0-.851,1.622,1.622,0,0,1,1.471,0l2.45,1.418A.449.449,0,0,1,1427.2,1586.15Z" fill="#78c5ff"/>
              </g>
              <g id="Сгруппировать_23" data-name="Сгруппировать 23">
                <path id="Контур_25" data-name="Контур 25" d="M1445.152,1593.134a1.62,1.62,0,0,1-1.469,0l-16.54-9.573a.449.449,0,0,1,0-.85,1.62,1.62,0,0,1,1.469,0l16.54,9.572A.45.45,0,0,1,1445.152,1593.134Z" fill="#78c5ff"/>
              </g>
              <g id="Сгруппировать_24" data-name="Сгруппировать 24">
                <path id="Контур_26" data-name="Контур 26" d="M1445.245,1589.784a1.622,1.622,0,0,1-1.471,0l-5.651-3.271a.449.449,0,0,1,0-.851,1.622,1.622,0,0,1,1.471,0l5.651,3.271A.449.449,0,0,1,1445.245,1589.784Z" fill="#78c5ff"/>
              </g>
              <g id="Сгруппировать_25" data-name="Сгруппировать 25">
                <path id="Контур_27" data-name="Контур 27" d="M1437.266,1585.165a1.619,1.619,0,0,1-1.471,0l-3.047-1.763a.449.449,0,0,1,0-.851,1.622,1.622,0,0,1,1.471,0l3.047,1.763A.449.449,0,0,1,1437.266,1585.165Z" fill="#78c5ff"/>
              </g>
              <g id="Сгруппировать_26" data-name="Сгруппировать 26">
                <path id="Контур_28" data-name="Контур 28" d="M1449.2,1588.667a1.62,1.62,0,0,1-1.469,0l-10.545-6.1a.449.449,0,0,1,0-.85,1.622,1.622,0,0,1,1.471,0l10.543,6.1A.449.449,0,0,1,1449.2,1588.667Z" fill="#78c5ff"/>
              </g>
              <g id="Сгруппировать_27" data-name="Сгруппировать 27">
                <path id="Контур_29" data-name="Контур 29" d="M1436.423,1581.275a1.62,1.62,0,0,1-1.47,0l-.092-.053a.45.45,0,0,1,0-.852,1.626,1.626,0,0,1,1.47,0l.092.054A.449.449,0,0,1,1436.423,1581.275Z" fill="#78c5ff"/>
              </g>
              <g id="Сгруппировать_28" data-name="Сгруппировать 28">
                <path id="Контур_30" data-name="Контур 30" d="M1453.974,1588.029a1.622,1.622,0,0,1-1.471,0l-2.434-1.41a.449.449,0,0,1,0-.851,1.62,1.62,0,0,1,1.469,0l2.435,1.409A.45.45,0,0,1,1453.974,1588.029Z" fill="#78c5ff"/>
              </g>
              <g id="Сгруппировать_29" data-name="Сгруппировать 29">
                <path id="Контур_31" data-name="Контур 31" d="M1449.2,1585.264a1.62,1.62,0,0,1-1.469,0l-11.762-6.807a.449.449,0,0,1,0-.85,1.621,1.621,0,0,1,1.47,0l11.762,6.806A.45.45,0,0,1,1449.2,1585.264Z" fill="#78c5ff"/>
              </g>
              <g id="Сгруппировать_30" data-name="Сгруппировать 30">
                <path id="Контур_32" data-name="Контур 32" d="M1453.239,1584.2a1.626,1.626,0,0,1-1.469,0l-9.189-5.318a.45.45,0,0,1,0-.852,1.62,1.62,0,0,1,1.47,0l9.189,5.318A.45.45,0,0,1,1453.239,1584.2Z" fill="#78c5ff"/>
              </g>
              <g id="Сгруппировать_31" data-name="Сгруппировать 31">
                <path id="Контур_33" data-name="Контур 33" d="M1457.741,1583.4a1.622,1.622,0,0,1-1.471,0l-12.312-7.125a.45.45,0,0,1,0-.852,1.62,1.62,0,0,1,1.469,0l12.314,7.126A.449.449,0,0,1,1457.741,1583.4Z" fill="#78c5ff"/>
              </g>
              <g id="Сгруппировать_32" data-name="Сгруппировать 32">
                <path id="Контур_34" data-name="Контур 34" d="M1467.389,1585.582a1.614,1.614,0,0,1-1.47,0l-20.645-11.947a.449.449,0,0,1,0-.851,1.623,1.623,0,0,1,1.471,0l20.644,11.948A.449.449,0,0,1,1467.389,1585.582Z" fill="#78c5ff"/>
              </g>
              <g id="Сгруппировать_33" data-name="Сгруппировать 33">
                <path id="Контур_35" data-name="Контур 35" d="M1444.417,1572.288a1.62,1.62,0,0,1-1.47,0l-2.757-1.6a.449.449,0,0,1,0-.851,1.622,1.622,0,0,1,1.471,0l2.756,1.595A.45.45,0,0,1,1444.417,1572.288Z" fill="#78c5ff"/>
              </g>
              <g id="Сгруппировать_34" data-name="Сгруппировать 34">
                <path id="Контур_36" data-name="Контур 36" d="M1467.574,1582.286a1.622,1.622,0,0,1-1.471,0l-1.837-1.063a.45.45,0,0,1,0-.852,1.626,1.626,0,0,1,1.469,0l1.838,1.064A.449.449,0,0,1,1467.574,1582.286Z" fill="#78c5ff"/>
              </g>
              <g id="Сгруппировать_35" data-name="Сгруппировать 35">
                <path id="Контур_37" data-name="Контур 37" d="M1463.3,1579.812a1.62,1.62,0,0,1-1.47,0l-15.943-9.226a.449.449,0,0,1,0-.85,1.622,1.622,0,0,1,1.471,0l15.942,9.226A.449.449,0,0,1,1463.3,1579.812Z" fill="#78c5ff"/>
              </g>
              <g id="Сгруппировать_36" data-name="Сгруппировать 36">
                <path id="Контур_38" data-name="Контур 38" d="M1462.244,1575.8a1.622,1.622,0,0,1-1.47,0l-3.676-2.127a.45.45,0,0,1,0-.851,1.62,1.62,0,0,1,1.47,0l3.676,2.128A.449.449,0,0,1,1462.244,1575.8Z" fill="#78c5ff"/>
              </g>
              <g id="Сгруппировать_37" data-name="Сгруппировать 37">
                <path id="Контур_39" data-name="Контур 39" d="M1467.022,1575.16a1.62,1.62,0,0,1-1.47,0l-7.352-4.255a.449.449,0,0,1,0-.85,1.616,1.616,0,0,1,1.471,0l7.351,4.254A.45.45,0,0,1,1467.022,1575.16Z" fill="#78c5ff"/>
              </g>
              <g id="Сгруппировать_38" data-name="Сгруппировать 38">
                <path id="Контур_40" data-name="Контур 40" d="M1479.151,1578.776a1.62,1.62,0,0,1-1.47,0l-5.024-2.907a.45.45,0,0,1,0-.852,1.623,1.623,0,0,1,1.471,0l5.023,2.907A.45.45,0,0,1,1479.151,1578.776Z" fill="#78c5ff"/>
              </g>
              <g id="Сгруппировать_39" data-name="Сгруппировать 39">
                <path id="Контур_41" data-name="Контур 41" d="M1471.861,1574.557a1.62,1.62,0,0,1-1.47,0l-18.439-10.671a.449.449,0,0,1,0-.85,1.622,1.622,0,0,1,1.471,0l18.438,10.671A.449.449,0,0,1,1471.861,1574.557Z" fill="#78c5ff"/>
              </g>
              <g id="Сгруппировать_40" data-name="Сгруппировать 40">
                <path id="Контур_42" data-name="Контур 42" d="M1479.335,1575.479a1.622,1.622,0,0,1-1.471,0l-17.7-10.245a.449.449,0,0,1,0-.851,1.622,1.622,0,0,1,1.471,0l17.7,10.245A.449.449,0,0,1,1479.335,1575.479Z" fill="#78c5ff"/>
              </g>
              <g id="Сгруппировать_41" data-name="Сгруппировать 41">
                <path id="Контур_43" data-name="Контур 43" d="M1459.273,1563.869a1.622,1.622,0,0,1-1.471,0l-.153-.089a.449.449,0,0,1,0-.851,1.622,1.622,0,0,1,1.471,0l.153.088A.45.45,0,0,1,1459.273,1563.869Z" fill="#78c5ff"/>
              </g>
              <g id="Сгруппировать_42" data-name="Сгруппировать 42">
                <path id="Контур_44" data-name="Контур 44" d="M1483.194,1574.309a1.62,1.62,0,0,1-1.47,0l-7.229-4.183a.449.449,0,0,1,0-.851,1.62,1.62,0,0,1,1.469,0l7.229,4.183A.449.449,0,0,1,1483.194,1574.309Z" fill="#78c5ff"/>
              </g>
              <g id="Сгруппировать_43" data-name="Сгруппировать 43">
                <path id="Контур_45" data-name="Контур 45" d="M1473.668,1568.8a1.621,1.621,0,0,1-1.47,0l-12.528-7.25a.449.449,0,0,1,0-.851,1.623,1.623,0,0,1,1.471,0l12.527,7.25A.449.449,0,0,1,1473.668,1568.8Z" fill="#78c5ff"/>
              </g>
              <g id="Сгруппировать_44" data-name="Сгруппировать 44">
                <path id="Контур_46" data-name="Контур 46" d="M1479.7,1568.885a1.629,1.629,0,0,1-1.471,0l-9.189-5.318a.45.45,0,0,1,0-.852,1.622,1.622,0,0,1,1.471,0l9.189,5.318A.45.45,0,0,1,1479.7,1568.885Z" fill="#78c5ff"/>
              </g>
            </g>
            <path id="Контур_47" data-name="Контур 47" d="M1462.477,1606.776l-11.394,6.594-11.394-6.594,11.394-6.594Z" fill="#78c5ff" opacity="0.23"/>
            <path id="Контур_48" data-name="Контур 48" d="M1479.568,1596.885l-11.394,6.594-11.394-6.594,11.394-6.594Z" fill="#78c5ff" opacity="0.23"/>
            <path id="Контур_49" data-name="Контур 49" d="M1496.659,1586.994l-11.394,6.594-11.394-6.594,11.394-6.594Z" fill="#78c5ff" opacity="0.23"/>
            <path id="Контур_50" data-name="Контур 50" d="M1477.145,1603.991l-20.583,11.912-2.205-1.276,20.583-11.912Z" fill="#78c5ff" opacity="0.23"/>
            <path id="Контур_51" data-name="Контур 51" d="M1499.565,1595.7l-38.961,22.547-2.205-1.276,38.961-22.548Z" fill="#78c5ff" opacity="0.23"/>
            <path id="Контур_52" data-name="Контур 52" d="M1485.231,1608.671l-20.583,11.912-2.205-1.276,20.583-11.912Z" fill="#78c5ff" opacity="0.23"/>
            <path id="Контур_53" data-name="Контур 53" d="M1512.8,1592.717l-18.378,10.636-2.205-1.276,18.378-10.636Z" fill="#78c5ff" opacity="0.23"/>
          </g>
        </g>
        <g id="Сгруппировать_53" data-name="Сгруппировать 53">
          <g id="Сгруппировать_48" data-name="Сгруппировать 48">
            <path id="Контур_54" data-name="Контур 54" d="M1240.947,1558.582l-1.153-.667,1.153-.667,1.153.667Z" fill="url(#linear-gradient-4)"/>
          </g>
          <g id="Сгруппировать_49" data-name="Сгруппировать 49">
            <path id="Контур_55" data-name="Контур 55" d="M1244.354,1556.61l-1.153-.667,2.253-1.3,1.153.668Zm4.507-2.608-1.154-.668,2.254-1.3,1.153.667Zm4.506-2.608-1.153-.668,2.254-1.3,1.153.668Zm4.507-2.609-1.153-.667,2.253-1.3,1.153.668Zm4.507-2.608-1.153-.668,2.253-1.3,1.153.667Zm4.507-2.608-1.153-.668,2.253-1.3,1.153.668Zm4.506-2.609-1.153-.667,2.254-1.3,1.153.667Z" fill="url(#linear-gradient-5)"/>
          </g>
          <g id="Сгруппировать_50" data-name="Сгруппировать 50">
            <path id="Контур_56" data-name="Контур 56" d="M1275.9,1538.354l-1.153-.667,1.73-1,1.73,1-1.153.667-.577-.334Z" fill="url(#linear-gradient-6)"/>
          </g>
          <g id="Сгруппировать_51" data-name="Сгруппировать 51">
            <path id="Контур_57" data-name="Контур 57" d="M1338.544,1573.94l-2.365-1.369,1.153-.668,2.365,1.369Zm-4.729-2.737-2.366-1.369,1.153-.668,2.366,1.369Zm-4.73-2.737-2.365-1.369,1.153-.668,2.365,1.369Zm-4.73-2.737-2.365-1.369,1.153-.668,2.365,1.369Zm-4.73-2.737-2.365-1.369,1.153-.668,2.365,1.369Zm-4.73-2.737-2.364-1.369,1.153-.668,2.364,1.369Zm-4.73-2.738-2.364-1.369,1.153-.667,2.364,1.369Zm-4.729-2.737-2.365-1.369,1.153-.667,2.365,1.369Zm-4.73-2.737-2.365-1.369,1.153-.667,2.365,1.369Zm-4.73-2.737-2.365-1.369,1.154-.668,2.364,1.369Zm-4.729-2.737-2.366-1.369,1.154-.668,2.365,1.369Zm-4.73-2.737-2.365-1.369,1.153-.668,2.365,1.369Zm-4.73-2.737-2.365-1.369,1.153-.668,2.365,1.369Z" fill="url(#linear-gradient-7)"/>
          </g>
          <g id="Сгруппировать_52" data-name="Сгруппировать 52">
            <path id="Контур_58" data-name="Контур 58" d="M1342.063,1575.976l-1.153-.667,1.153-.667,1.153.667Z" fill="url(#linear-gradient-8)"/>
          </g>
        </g>
        <g id="Сгруппировать_61" data-name="Сгруппировать 61">
          <path id="Контур_59" data-name="Контур 59" d="M1186.476,1580.336l37.474-21.687,37.474,21.687-37.474,21.687Z" fill="#939598" opacity="0.32"/>
          <g id="Сгруппировать_60" data-name="Сгруппировать 60">
            <path id="Контур_60" data-name="Контур 60" d="M1223.949,1581.8l-38.286-22.157,38.286-22.157,38.286,22.157Z" fill="url(#linear-gradient-9)"/>
            <path id="Контур_61" data-name="Контур 61" d="M1223.949,1581.8V1594.3l-38.286-22.157v-12.495Z" fill="url(#linear-gradient-10)"/>
            <path id="Контур_62" data-name="Контур 62" d="M1223.949,1581.8V1594.3l38.286-22.157v-12.495Z" fill="url(#linear-gradient-11)"/>
            <g id="Сгруппировать_57" data-name="Сгруппировать 57">
              <g id="Сгруппировать_54" data-name="Сгруппировать 54">
                <path id="Контур_63" data-name="Контур 63" d="M1216.912,1585.455l-16.891-9.775v-.652l16.891,9.775Z" fill="#d1ebff"/>
              </g>
              <g id="Сгруппировать_55" data-name="Сгруппировать 55">
                <path id="Контур_64" data-name="Контур 64" d="M1198.332,1574.7l-2.252-1.3v-.652l2.252,1.3Z" fill="#d1ebff"/>
              </g>
              <g id="Сгруппировать_56" data-name="Сгруппировать 56">
                <path id="Контур_65" data-name="Контур 65" d="M1194.391,1572.422l-1.689-.977v-.652l1.689.978Z" fill="#d1ebff"/>
              </g>
            </g>
            <path id="Контур_66" data-name="Контур 66" d="M1261.206,1565.233l-2.041,1.181v-2.362l2.041-1.181Z" fill="#d1ebff"/>
            <g id="Сгруппировать_59" data-name="Сгруппировать 59">
              <path id="Контур_67" data-name="Контур 67" d="M1262.235,1555.6v1.09l-38.286,22.157v-1.091Z" fill="#fff" opacity="0.38"/>
              <g id="Сгруппировать_58" data-name="Сгруппировать 58">
                <path id="Контур_68" data-name="Контур 68" d="M1223.949,1577.76l-38.286-22.157,38.286-22.157,38.286,22.157Z" fill="#fff" opacity="0.21"/>
                <path id="Контур_69" data-name="Контур 69" d="M1223.949,1578.851l-38.286-22.157,38.286-22.157,38.286,22.157Z" fill="#fff" opacity="0.21"/>
                <path id="Контур_70" data-name="Контур 70" d="M1185.664,1555.6v1.09l38.286,22.157v-1.091Z" fill="#fff" opacity="0.38"/>
              </g>
            </g>
          </g>
        </g>
        <path id="Контур_71" data-name="Контур 71" d="M1397.924,1716.071l-64.136,37.117-85.9-49.712,64.136-37.117Z" fill="#939598" opacity="0.32"/>
        <path id="Контур_72" data-name="Контур 72" d="M1462.354,1629.581h.034l3.846-.291a4.978,4.978,0,0,1,.2-.892,5.619,5.619,0,0,1,.37-.874l-3.338-1.051a3.285,3.285,0,0,0-.923-1.187l.007-.017.711-2.207q-.711-.169-1.4-.386c-.462-.146-.9-.3-1.322-.473l-2.756,1.51a10.753,10.753,0,0,0-2.234.144l-.031-.01-3.406-1.073c-.332.226-.686.445-1.068.654s-.778.4-1.186.581l1.631,1.985a2.394,2.394,0,0,0-.457,1.273l-.025.013-2.816,1.542a8.339,8.339,0,0,1,.744.79,7.04,7.04,0,0,1,.589.833l3.767-.284a7.7,7.7,0,0,0,.939.377,9.2,9.2,0,0,0,1.012.266l.014.019,1.665,2.026c.5-.07,1.008-.127,1.528-.166s1.038-.06,1.551-.066l.7-2.16A6.286,6.286,0,0,0,1462.354,1629.581Z" fill="#939598" opacity="0.17"/>
        <path id="Контур_73" data-name="Контур 73" d="M1444.863,1638.956c.243-.141.47-.287.689-.436l3.8.348a7.461,7.461,0,0,1,.628-.822,8.708,8.708,0,0,1,.782-.778l-2.7-1.562a4.413,4.413,0,0,0,.348-1.239l3.432-1.011a5.491,5.491,0,0,1-.328-.88,4.971,4.971,0,0,1-.158-.895l-3.769-.345a6.779,6.779,0,0,0-.978-1.123l1.747-1.984q-.6-.279-1.158-.6c-.371-.214-.715-.439-1.037-.67l-3.4,1a16.559,16.559,0,0,0-1.928-.578l-.6-2.2c-.512-.015-1.028-.044-1.546-.091s-1.025-.113-1.52-.19l-1.735,1.97a20.537,20.537,0,0,0-2.146.188l-2.72-1.574c-.429.163-.875.314-1.343.453s-.943.258-1.422.364l.6,2.183q-.439.209-.851.447c-.242.141-.47.287-.688.436l-3.8-.349a7.314,7.314,0,0,1-.628.823,8.79,8.79,0,0,1-.781.778l2.7,1.563a4.46,4.46,0,0,0-.348,1.238l-3.432,1.012a5.379,5.379,0,0,1,.328.88,4.961,4.961,0,0,1,.158.895l3.77.345a6.71,6.71,0,0,0,.977,1.122l-1.747,1.985c.4.186.787.386,1.158.6s.715.44,1.037.671l3.4-1a16.816,16.816,0,0,0,1.929.578l.6,2.2q.768.021,1.547.091c.518.048,1.025.113,1.519.19l1.735-1.97a20.508,20.508,0,0,0,2.146-.188l2.72,1.574c.429-.162.876-.313,1.344-.452s.943-.258,1.422-.363l-.6-2.183C1444.3,1639.262,1444.589,1639.114,1444.863,1638.956Zm-9.424-4.568a.468.468,0,0,1,0-.886,1.685,1.685,0,0,1,1.531,0,.468.468,0,0,1,0,.886A1.692,1.692,0,0,1,1435.439,1634.388Z" fill="#939598" opacity="0.17"/>
        <path id="Контур_74" data-name="Контур 74" d="M1474.988,1715.74l-.036.041c0-1.834-1.24-3.718-3.757-5.173l-175.038-101.258c-4.787-2.77-12.256-2.938-16.679-.377l-61.09,35.375c-2,1.159-2.987,2.681-3.078,4.253l-.057-.026v9.925l.047.026c-.057,1.871,1.173,3.806,3.746,5.294l175.037,101.258c4.785,2.768,12.255,2.939,16.681.377l61.09-35.374c2.11-1.222,3.113-2.846,3.1-4.509l.033-.018Z" fill="#939598" opacity="0.32"/>
        <g id="Сгруппировать_62" data-name="Сгруппировать 62">
          <path id="Контур_75" data-name="Контур 75" d="M1215.252,1626.952v9.924l8.7,4.795s-.384-10.875-.548-10.984S1215.252,1626.952,1215.252,1626.952Z" fill="#ffd1d8"/>
          <path id="Контур_76" data-name="Контур 76" d="M1474.987,1694.116v9.814l-16.367,9.139Z" fill="#ffd1d8"/>
          <path id="Контур_77" data-name="Контур 77" d="M1394.084,1743.454c4.784,2.767,12.254,2.94,16.68.377l61.09-35.374c4.424-2.562,4.125-6.886-.659-9.654l-175.038-101.257c-4.787-2.77-12.256-2.938-16.679-.377l-61.09,35.374c-4.427,2.563-4.129,6.884.657,9.653Z" fill="#ffd1d8"/>
          <path id="Контур_78" data-name="Контур 78" d="M1394.084,1733.635c4.784,2.767,12.254,2.939,16.68.377l61.09-35.374c4.424-2.561,4.125-6.886-.659-9.654l-175.038-101.258c-4.787-2.768-12.256-2.937-16.679-.376l-61.09,35.374c-4.427,2.563-4.129,6.883.657,9.653Z" fill="#fefefe"/>
          <path id="Контур_79" data-name="Контур 79" d="M1381.864,1726.565l77.112-44.651-146.064-84.5-77.364,44.8Z" fill="url(#linear-gradient-12)"/>
          <path id="Контур_80" data-name="Контур 80" d="M1252.1,1618.211a4.565,4.565,0,0,0,4.111.171l15.784-9.14c1.051-.608.919-1.675-.3-2.379h0a4.567,4.567,0,0,0-4.109-.171l-15.785,9.14c-1.05.608-.918,1.677.3,2.379Z" fill="#d2d2d4"/>
          <path id="Контур_81" data-name="Контур 81" d="M1243.05,1619.683a4.808,4.808,0,0,0,4.335.182c1.11-.643.97-1.765-.316-2.508a4.8,4.8,0,0,0-4.332-.181C1241.627,1617.819,1241.768,1618.941,1243.05,1619.683Z" fill="url(#linear-gradient-13)"/>
          <path id="Контур_82" data-name="Контур 82" d="M1249.565,1623.453c-1.282-.742-1.423-1.865-.312-2.507a4.8,4.8,0,0,1,4.332.18c1.283.743,1.424,1.865.314,2.508A4.808,4.808,0,0,1,1249.565,1623.453Z" fill="#d2d2d4"/>
          <path id="Контур_83" data-name="Контур 83" d="M1250.683,1656.49a.313.313,0,0,1-.47.272l-7.868-4.553a.316.316,0,0,1-.156-.272v-1.566a.313.313,0,0,1,.47-.272l7.868,4.553a.316.316,0,0,1,.156.272Z" fill="#b7b8ba"/>
          <path id="Контур_84" data-name="Контур 84" d="M1265.327,1665.01a.313.313,0,0,1-.47.272l-7.867-4.553a.315.315,0,0,1-.157-.272v-1.566a.314.314,0,0,1,.471-.272l7.867,4.553a.314.314,0,0,1,.156.272Z" fill="#b7b8ba"/>
        </g>
        <ellipse id="Эллипс_1" data-name="Эллипс 1" cx="7.796" cy="4.512" rx="7.796" ry="4.512" transform="translate(1424.215 1705.097)" fill="#ffd1d8"/>
        <path id="Контур_85" data-name="Контур 85" d="M1301.381,1590.748l-65.833,38.12,146.316,84.35,65.581-37.974Z" fill="#939598" opacity="0.05"/>
        <path id="Контур_86" data-name="Контур 86" d="M1450,1716.294l-16.022,9.272c-.353.2-.638-.012-.638-.483v-1.411a1.53,1.53,0,0,1,.638-1.22l16.022-9.273c.352-.2.637.013.637.483v1.411A1.532,1.532,0,0,1,1450,1716.294Z" fill="#d2d2d4"/>
        <path id="Контур_87" data-name="Контур 87" d="M1462.354,1618.871l.034,0,3.846-.29a4.978,4.978,0,0,1,.2-.892,5.614,5.614,0,0,1,.37-.874l-3.338-1.052a3.291,3.291,0,0,0-.923-1.186l.007-.017.711-2.207c-.474-.113-.943-.24-1.4-.386s-.9-.3-1.322-.473l-2.756,1.51a10.753,10.753,0,0,0-2.234.144l-.031-.01-3.406-1.073c-.332.226-.686.445-1.068.654s-.778.4-1.186.58l1.631,1.986a2.394,2.394,0,0,0-.457,1.273l-.025.012-2.816,1.543a8.3,8.3,0,0,1,.744.789,7.12,7.12,0,0,1,.589.833l3.767-.285a7.55,7.55,0,0,0,.939.379,9.2,9.2,0,0,0,1.012.266l.014.018,1.665,2.027c.5-.07,1.008-.126,1.528-.166s1.038-.06,1.551-.066l.7-2.16A6.314,6.314,0,0,0,1462.354,1618.871Z" fill="url(#linear-gradient-14)"/>
        <path id="Контур_88" data-name="Контур 88" d="M1444.863,1628.245c.243-.141.47-.287.689-.436l3.8.348a7.551,7.551,0,0,1,.628-.823,8.83,8.83,0,0,1,.782-.777l-2.7-1.562a4.415,4.415,0,0,0,.348-1.239l3.432-1.011a5.486,5.486,0,0,1-.328-.88,4.971,4.971,0,0,1-.158-.895l-3.769-.345a6.774,6.774,0,0,0-.978-1.123l1.747-1.984q-.6-.279-1.158-.6c-.371-.215-.715-.439-1.037-.67l-3.4,1a16.583,16.583,0,0,0-1.928-.578l-.6-2.2c-.512-.015-1.028-.044-1.546-.091s-1.025-.113-1.52-.19l-1.735,1.97a20.838,20.838,0,0,0-2.146.187l-2.72-1.573c-.429.163-.875.314-1.343.453s-.943.257-1.422.364l.6,2.183q-.439.209-.851.447c-.242.141-.47.286-.688.436l-3.8-.348a7.324,7.324,0,0,1-.628.822,8.824,8.824,0,0,1-.781.778l2.7,1.562a4.459,4.459,0,0,0-.348,1.238l-3.432,1.012a5.374,5.374,0,0,1,.328.88,4.946,4.946,0,0,1,.158.895l3.77.345a6.715,6.715,0,0,0,.977,1.122l-1.747,1.985c.4.186.787.385,1.158.6s.715.44,1.037.671l3.4-1a17.013,17.013,0,0,0,1.929.578l.6,2.2q.768.021,1.547.091t1.519.19l1.735-1.97a20.475,20.475,0,0,0,2.146-.188l2.72,1.573c.429-.162.876-.314,1.344-.452s.943-.258,1.422-.363l-.6-2.183C1444.3,1628.552,1444.589,1628.4,1444.863,1628.245Zm-9.424-4.568a.468.468,0,0,1,0-.886,1.686,1.686,0,0,1,1.531,0,.468.468,0,0,1,0,.886A1.692,1.692,0,0,1,1435.439,1623.677Z" fill="url(#linear-gradient-15)"/>
        <g id="Сгруппировать_63" data-name="Сгруппировать 63">
          <path id="Контур_89" data-name="Контур 89" d="M1460.571,1670.5l-1.153-.668,1.921-1.112,1.153.668Zm4.227-2.447-1.153-.667,2.307-1.334,1.153.667Zm4.613-2.669-1.153-.667,2.306-1.336,1.153.668Zm4.612-2.669-1.153-.668,2.307-1.334,1.153.668Zm4.613-2.67-1.153-.667,2.306-1.334,1.153.667Zm4.612-2.669-1.153-.668,2.306-1.334,1.153.668Zm3.845-2.892-1.921-1.113,1.153-.667,2.5,1.445-.962.557-.577-.334Zm-4.227-2.447-2.306-1.334,1.153-.668,2.306,1.336Zm-4.612-2.669-2.307-1.334,1.153-.668,2.307,1.334Zm-4.613-2.67-2.306-1.334,1.153-.667,2.306,1.334Zm-4.612-2.669-2.307-1.334,1.153-.668,2.307,1.334Zm-4.613-2.669-2.306-1.336,1.153-.667,2.306,1.334Zm-4.612-2.67-2.307-1.334,1.154-.668,2.306,1.336Z" fill="url(#linear-gradient-16)"/>
        </g>
        <g id="Сгруппировать_64" data-name="Сгруппировать 64">
          <path id="Контур_90" data-name="Контур 90" d="M1192.724,1665.4l-14.8-8.567,14.8-8.567,14.8,8.567Z" fill="url(#linear-gradient-17)"/>
          <path id="Контур_91" data-name="Контур 91" d="M1192.724,1692.094l-20.048-11.6,20.047-11.6,20.048,11.6Z" fill="#939598" opacity="0.32"/>
          <path id="Контур_92" data-name="Контур 92" d="M1177.921,1656.836v16.376l14.8,8.567V1665.4Z" fill="url(#linear-gradient-18)"/>
          <path id="Контур_93" data-name="Контур 93" d="M1207.528,1656.836v16.376l-14.8,8.567V1665.4Z" fill="url(#linear-gradient-19)"/>
        </g>
        <path id="Контур_94" data-name="Контур 94" d="M1381.864,1699.871l77.112-44.651-146.064-84.5-77.364,44.8Z" fill="#fff" opacity="0.21"/>
        <g id="Сгруппировать_65" data-name="Сгруппировать 65">
          <path id="Контур_95" data-name="Контур 95" d="M1317.228,1599.915l-13.665,7.908,68.558,39.676,13.679-7.916Z" fill="#939598" opacity="0.08"/>
          <path id="Контур_96" data-name="Контур 96" d="M1424.531,1611.83l-52.41,30.331-68.558-39.676,52.41-30.331Z" fill="#fff" opacity="0.21"/>
          <path id="Контур_97" data-name="Контур 97" d="M1373.591,1586.633l-29.61,17.136-11.252-6.512,29.61-17.136Z" fill="url(#linear-gradient-20)"/>
          <path id="Контур_98" data-name="Контур 98" d="M1391.505,1597l-29.61,17.136-11.252-6.512,29.61-17.136Z" fill="url(#linear-gradient-21)"/>
          <path id="Контур_99" data-name="Контур 99" d="M1409.419,1607.368l-29.61,17.136-11.252-6.512,29.61-17.136Z" fill="url(#linear-gradient-22)"/>
        </g>
        <g id="Сгруппировать_76" data-name="Сгруппировать 76">
          <path id="Контур_100" data-name="Контур 100" d="M1278.384,1676.523l94.323,54.565.063-9.764,25.153-14.557-85.9-49.712Z" fill="#939598" opacity="0.32"/>
          <path id="Контур_101" data-name="Контур 101" d="M1397.924,1701.389l-64.136,37.117-85.9-49.712,64.136-37.117Z" fill="#fff"/>
          <path id="Контур_102" data-name="Контур 102" d="M1339.291,1667.456l-64.136,37.117-27.266-15.779,64.136-37.117Z" fill="url(#linear-gradient-23)"/>
          <path id="Контур_103" data-name="Контур 103" d="M1310.611,1697.681l-20.4,11.809-3.253-1.883,20.4-11.809Z" fill="#d1ebff"/>
          <path id="Контур_104" data-name="Контур 104" d="M1334.738,1690.127l-38.995,22.567-3.253-1.883,38.995-22.567Z" fill="#d1ebff"/>
          <path id="Контур_105" data-name="Контур 105" d="M1321.685,1704.09l-20.4,11.809-3.253-1.883,20.4-11.809Z" fill="#d1ebff"/>
          <path id="Контур_106" data-name="Контур 106" d="M1336.517,1701.914l-29.7,17.188-3.253-1.883,29.7-17.188Z" fill="#d1ebff"/>
          <path id="Контур_107" data-name="Контур 107" d="M1332.758,1710.5l-20.4,11.809-3.253-1.883,20.4-11.809Z" fill="#d1ebff"/>
          <path id="Контур_108" data-name="Контур 108" d="M1366.18,1697.564l-48.29,27.947-3.253-1.883,48.29-27.947Z" fill="#d1ebff"/>
          <g id="Сгруппировать_75" data-name="Сгруппировать 75">
            <ellipse id="Эллипс_2" data-name="Эллипс 2" cx="15.236" cy="8.817" rx="15.236" ry="8.817" transform="translate(1261.034 1680.063)" fill="#fafafa"/>
            <path id="Контур_109" data-name="Контур 109" d="M1287.208,1695.208c-6.029,3.49-15.84,3.492-21.871,0s-6.035-9.167-.006-12.657,15.839-3.492,21.87,0S1293.236,1691.716,1287.208,1695.208Zm-21.553-12.467c-5.849,3.387-5.846,8.9.006,12.282s15.373,3.384,21.222,0,5.846-8.9-.006-12.282S1271.5,1679.354,1265.656,1682.741Z" fill="#b3b5b7"/>
            <g id="Сгруппировать_74" data-name="Сгруппировать 74">
              <path id="Контур_110" data-name="Контур 110" d="M1276.49,1691.719s.071-.416,2.018-1.543a7.624,7.624,0,0,1,2.666-1.168l.986.57-4.211,2.281-.577.327Z" fill="#73c3ff"/>
              <g id="Сгруппировать_66" data-name="Сгруппировать 66">
                <path id="Контур_111" data-name="Контур 111" d="M1279.776,1688.574l-2.017,1.168-2.017,1.168,4.637,2.865,2.175-1.26,2.175-1.26Z" fill="#ffbdc6"/>
                <path id="Контур_112" data-name="Контур 112" d="M1279.776,1688.574l-2.017,1.168-2.017,1.168.232.143h0l6.856-.825Z" fill="#aeafb2" opacity="0.31"/>
              </g>
              <path id="Контур_113" data-name="Контур 113" d="M1286.884,1695.02c3.1-1.8,4.558-4.19,4.368-6.547l-1.267-.571c-3.3-1.011-8.575,1.582-8.575,1.582l-.845.75-.813.661-1.2.449-1.24.511s-4.476,3.055-2.727,4.964l.989.734A21.993,21.993,0,0,0,1286.884,1695.02Z" fill="#9cd4ff"/>
              <g id="Сгруппировать_68" data-name="Сгруппировать 68">
                <path id="Контур_114" data-name="Контур 114" d="M1277.2,1685.221c2.78,1.609,3.41,3.853,1.406,5.013s-5.881.8-8.662-.812-5.291-2.762-1.406-5.013S1274.421,1683.613,1277.2,1685.221Z" fill="#ffbdc6"/>
                <g id="Сгруппировать_67" data-name="Сгруппировать 67">
                  <path id="Контур_115" data-name="Контур 115" d="M1269.328,1689.068s-.8-.12-.7.213,1.521.689,2.305.644Z" fill="#ffbdc6"/>
                  <path id="Контур_116" data-name="Контур 116" d="M1276.589,1684.863s-.208-.461.367-.4a1.473,1.473,0,0,1,1.114,1.333Z" fill="#ffbdc6"/>
                </g>
              </g>
              <path id="Контур_117" data-name="Контур 117" d="M1278.454,1691.4l-1.042.43s-.124.085-.321.233l.171.161a4.089,4.089,0,0,0,3.533-.008l-.808-1.318S1279.272,1691.171,1278.454,1691.4Z" fill="#aeafb2" opacity="0.31"/>
              <g id="Сгруппировать_69" data-name="Сгруппировать 69">
                <path id="Контур_118" data-name="Контур 118" d="M1282.313,1691.3a1.12,1.12,0,0,0,.011-2.045l-.234-.083c-.429.183-.68.307-.68.307l-.455.4a9.55,9.55,0,0,1-.921.952Z" fill="#aeafb2" opacity="0.31"/>
                <path id="Контур_119" data-name="Контур 119" d="M1279.75,1690.894s1.407-1.24,1.423-1.887l.867.308a1.12,1.12,0,0,1-.011,2.045Z" fill="#82caff"/>
              </g>
              <path id="Контур_120" data-name="Контур 120" d="M1269.93,1683.432c-1.864.785-4.143,2.02-3.174,2.512h0c-1.286.415-1.37,1.382-.168,2.16a6.041,6.041,0,0,0,3.025.849c-2.824-1.453-2.292-3.143-2.292-3.143a6.184,6.184,0,0,1,4.187-.19c.415.139.382-1.155,4.428-.619,0,0,.553-.459-.3-1.075A7.2,7.2,0,0,0,1269.93,1683.432Z" fill="#ff0025"/>
              <path id="Контур_121" data-name="Контур 121" d="M1275.883,1684.678a8.078,8.078,0,0,0-2.311,1.222c-.637.538-1.045.816-1.045.816s-.479.235-1.408.6a6.809,6.809,0,0,0-2.112,1.339,1.682,1.682,0,0,1-.18.238l.4.136s.043-.105.354-.025a3.963,3.963,0,0,0,3.125.123c1.5-.668.658-1.58.076-2.037-.056-.035-.008-.045.155-.14s.18-.123.241-.09c.792.336,2.368.822,3.521-.045s-.078-1.63-.216-1.808.043-.2.043-.2l-.235-.234S1276.062,1684.644,1275.883,1684.678Zm-3.005,4.16a2.6,2.6,0,0,1-3-.082c-.552-.432,2.1-1.843,2.708-1.543S1273.66,1688.386,1272.878,1688.839Zm3.316-1.92a3.376,3.376,0,0,1-2.809-.168c-.517-.351,1.919-1.888,2.667-1.568C1276.052,1685.182,1277.925,1685.894,1276.194,1686.919Z" fill="#a1a3a5"/>
              <g id="Сгруппировать_70" data-name="Сгруппировать 70">
                <path id="Контур_122" data-name="Контур 122" d="M1279.751,1690.894l.626,1.02,1.027-.065.111-.594Z" fill="#52b5ff"/>
                <path id="Контур_123" data-name="Контур 123" d="M1282.866,1692.038l-1.408-.485-.055.3-.514.032.839.814,1.909,1.23,2.434,1.526c.276-.139.549-.281.811-.433s.509-.31.748-.471l-2.64-1.407h0Z" fill="#52b5ff"/>
                <path id="Контур_124" data-name="Контур 124" d="M1280.889,1691.882l.63.057.244-.281-.3-.1-.055.3Z" fill="#aeafb2" opacity="0.31"/>
              </g>
              <g id="Сгруппировать_71" data-name="Сгруппировать 71">
                <path id="Контур_125" data-name="Контур 125" d="M1279.75,1690.894a13.472,13.472,0,0,1-3.26.824l.535.5a4.093,4.093,0,0,0,3.533-.008Z" fill="#82caff"/>
                <path id="Контур_126" data-name="Контур 126" d="M1280.376,1691.914l.093-.006-.719-1.015Z" fill="#aeafb2" opacity="0.31"/>
              </g>
              <g id="Сгруппировать_73" data-name="Сгруппировать 73">
                <path id="Контур_127" data-name="Контур 127" d="M1285.984,1691.778l1.741,1.007,1.754-.585,1.011-1.016-1.741-1.006Zm4.363-.583-.952.956-1.652.551-1.137-.658,2.6-1.507Z" fill="#82caff"/>
                <g id="Сгруппировать_72" data-name="Сгруппировать 72">
                  <path id="Контур_128" data-name="Контур 128" d="M1287.811,1691.033a.107.107,0,0,1,0,.2.383.383,0,0,1-.35,0,.106.106,0,0,1,0-.2A.382.382,0,0,1,1287.811,1691.033Z" fill="#9cd4ff"/>
                  <path id="Контур_129" data-name="Контур 129" d="M1287.672,1691.113a.1.1,0,0,0,.088,0,.027.027,0,0,0,0-.051.1.1,0,0,0-.088,0A.027.027,0,0,0,1287.672,1691.113Z" fill="#82caff"/>
                  <path id="Контур_130" data-name="Контур 130" d="M1287.6,1691.154a.027.027,0,0,1,0,.05.1.1,0,0,1-.088,0c-.024-.015-.024-.037,0-.051A.1.1,0,0,1,1287.6,1691.154Z" fill="#82caff"/>
                  <path id="Контур_131" data-name="Контур 131" d="M1287.672,1691.154a.026.026,0,0,0,0,.05.1.1,0,0,0,.088,0,.026.026,0,0,0,0-.05A.1.1,0,0,0,1287.672,1691.154Z" fill="#82caff"/>
                  <path id="Контур_132" data-name="Контур 132" d="M1287.6,1691.113a.1.1,0,0,1-.088,0c-.024-.014-.024-.036,0-.051a.1.1,0,0,1,.088,0A.027.027,0,0,1,1287.6,1691.113Z" fill="#82caff"/>
                </g>
              </g>
            </g>
          </g>
          <path id="Контур_133" data-name="Контур 133" d="M1308.894,1670.293l-17.623,10.2-2.983-1.726,17.623-10.2Z" fill="#d1ebff"/>
          <path id="Контур_134" data-name="Контур 134" d="M1319.135,1664.366l-7.633,4.417-2.983-1.726,7.633-4.417Z" fill="#d1ebff"/>
          <path id="Контур_135" data-name="Контур 135" d="M1247.889,1688.794v1.711l85.9,49.712v-1.711Z" fill="#ededed"/>
          <path id="Контур_136" data-name="Контур 136" d="M1397.924,1701.389v1.711l-64.136,37.117v-1.711Z" fill="#f6f7f7"/>
        </g>
        <path id="Контур_137" data-name="Контур 137" d="M1396.822,1677.772c2.521,1.459,2.521,3.825,0,5.284a10.069,10.069,0,0,1-9.13,0c-2.521-1.459-2.521-3.825,0-5.284A10.069,10.069,0,0,1,1396.822,1677.772Z" fill="#d1ebff"/>
        <path id="Контур_138" data-name="Контур 138" d="M1410.469,1669.874c2.521,1.459,2.521,3.825,0,5.284a10.07,10.07,0,0,1-9.13,0c-2.521-1.459-2.521-3.825,0-5.284A10.07,10.07,0,0,1,1410.469,1669.874Z" fill="#d1ebff"/>
        <path id="Контур_139" data-name="Контур 139" d="M1424.117,1661.976c2.52,1.459,2.521,3.825,0,5.284a10.07,10.07,0,0,1-9.13,0c-2.521-1.459-2.521-3.825,0-5.284A10.07,10.07,0,0,1,1424.117,1661.976Z" fill="#d1ebff"/>
        <path id="Контур_140" data-name="Контур 140" d="M1437.763,1654.078c2.521,1.459,2.521,3.825,0,5.284a10.069,10.069,0,0,1-9.13,0c-2.521-1.459-2.521-3.825,0-5.284A10.063,10.063,0,0,1,1437.763,1654.078Z" fill="#d1ebff"/>
        <g id="Сгруппировать_77" data-name="Сгруппировать 77">
          <path id="Контур_141" data-name="Контур 141" d="M1225,1683.4l-1.507-.872.666-1.155.84.486.8-.463.666,1.155Zm3.773-2.183-.666-1.155,2.306-1.335.666,1.155Zm-7.585-.023-2.306-1.335.666-1.155,2.306,1.334Zm12.2-2.647-.666-1.155,2.307-1.335.666,1.155Zm-16.809-.023-2.306-1.334.665-1.155,2.307,1.335Zm21.423-2.646-.666-1.155,2.306-1.334.666,1.155Zm-26.036-.023-2.306-1.335.666-1.156,2.306,1.336Zm30.648-2.646-.665-1.155,2.306-1.335.665,1.155Zm-35.26-.024-2.306-1.335.665-1.155,2.307,1.334Zm39.873-2.646-.666-1.155,2.306-1.334.666,1.155Zm-44.486-.023-2.306-1.334.666-1.155,2.306,1.334Zm49.1-2.646-.666-1.155,1.5-.871.666,1.155Z" fill="url(#linear-gradient-24)"/>
        </g>
        <path id="Контур_142" data-name="Контур 142" d="M1365.869,1587.09a5.938,5.938,0,0,1-5.382,0c-1.485-.861-1.485-2.254,0-3.115a5.938,5.938,0,0,1,5.382,0C1367.355,1584.836,1367.356,1586.23,1365.869,1587.09Z" fill="#d1ebff"/>
        <path id="Контур_143" data-name="Контур 143" d="M1384.178,1597.57a5.938,5.938,0,0,1-5.381,0c-1.487-.861-1.487-2.254,0-3.115a5.938,5.938,0,0,1,5.381,0C1385.664,1595.315,1385.664,1596.709,1384.178,1597.57Z" fill="#d1ebff"/>
        <g id="Сгруппировать_86" data-name="Сгруппировать 86">
          <g id="Сгруппировать_78" data-name="Сгруппировать 78">
            <path id="Контур_144" data-name="Контур 144" d="M1322.4,1649.552a.836.836,0,0,1-.762,0l-39.365-22.782a.232.232,0,0,1,0-.441.84.84,0,0,1,.761,0l39.366,22.782A.233.233,0,0,1,1322.4,1649.552Z" fill="#d1ebff"/>
          </g>
          <g id="Сгруппировать_79" data-name="Сгруппировать 79">
            <path id="Контур_145" data-name="Контур 145" d="M1328.925,1645.776a.841.841,0,0,1-.761,0l-39.366-22.782a.234.234,0,0,1,0-.442.84.84,0,0,1,.762,0l39.365,22.782A.232.232,0,0,1,1328.925,1645.776Z" fill="#d1ebff"/>
          </g>
          <g id="Сгруппировать_80" data-name="Сгруппировать 80">
            <path id="Контур_146" data-name="Контур 146" d="M1335.453,1642a.843.843,0,0,1-.762,0l-39.366-22.782a.234.234,0,0,1,0-.442.843.843,0,0,1,.762,0l39.366,22.783A.233.233,0,0,1,1335.453,1642Z" fill="#d1ebff"/>
          </g>
          <g id="Сгруппировать_81" data-name="Сгруппировать 81">
            <path id="Контур_147" data-name="Контур 147" d="M1341.979,1638.22a.84.84,0,0,1-.761,0l-39.366-22.782a.232.232,0,0,1,0-.441.834.834,0,0,1,.761,0l39.366,22.782A.233.233,0,0,1,1341.979,1638.22Z" fill="#d1ebff"/>
          </g>
          <g id="Сгруппировать_82" data-name="Сгруппировать 82">
            <path id="Контур_148" data-name="Контур 148" d="M1303.35,1638.529a3.361,3.361,0,0,1-3.047,0l-6.984-4.042a.932.932,0,0,1,0-1.764,3.361,3.361,0,0,1,3.047,0l6.984,4.043A.931.931,0,0,1,1303.35,1638.529Z" fill="#8cceff"/>
          </g>
          <g id="Сгруппировать_83" data-name="Сгруппировать 83">
            <path id="Контур_149" data-name="Контур 149" d="M1317.5,1639.161a3.362,3.362,0,0,1-3.048,0l-6.984-4.042a.932.932,0,0,1,0-1.764,3.362,3.362,0,0,1,3.048,0l6.984,4.042A.932.932,0,0,1,1317.5,1639.161Z" fill="#8cceff"/>
          </g>
          <g id="Сгруппировать_84" data-name="Сгруппировать 84">
            <path id="Контур_150" data-name="Контур 150" d="M1308.785,1626.564a3.361,3.361,0,0,1-3.047,0l-6.984-4.042a.931.931,0,0,1,0-1.763,3.354,3.354,0,0,1,3.047,0l6.984,4.042A.931.931,0,0,1,1308.785,1626.564Z" fill="#8cceff"/>
          </g>
          <g id="Сгруппировать_85" data-name="Сгруппировать 85">
            <path id="Контур_151" data-name="Контур 151" d="M1338.17,1636.016a3.361,3.361,0,0,1-3.047,0l-6.984-4.042a.931.931,0,0,1,0-1.763,3.361,3.361,0,0,1,3.047,0l6.984,4.042A.931.931,0,0,1,1338.17,1636.016Z" fill="#8cceff"/>
          </g>
        </g>
      </g>
    </g>
  </g>
</svg>
